<svg xmlns="http://www.w3.org/2000/svg" viewBox="0 0 1440 320"><path fill="#ffffff" fill-opacity="1" d="M0,128L53.3,288L106.7,288L160,192L213.3,32L266.7,224L320,288L373.3,160L426.7,192L480,224L533.3,192L586.7,64L640,128L693.3,96L746.7,64L800,192L853.3,224L906.7,96L960,288L1013.3,160L1066.7,288L1120,32L1173.3,128L1226.7,128L1280,192L1333.3,288L1386.7,224L1440,256L1440,320L1386.7,320L1333.3,320L1280,320L1226.7,320L1173.3,320L1120,320L1066.7,320L1013.3,320L960,320L906.7,320L853.3,320L800,320L746.7,320L693.3,320L640,320L586.7,320L533.3,320L480,320L426.7,320L373.3,320L320,320L266.7,320L213.3,320L160,320L106.7,320L53.3,320L0,320Z"></path></svg>