<svg xmlns="http://www.w3.org/2000/svg" viewBox="0 0 1440 320" preserveAspectRatio="none"><path fill="#ffffff" fill-opacity="1" d="M0,0L14.1,48C28.2,96,56,192,85,197.3C112.9,203,141,117,169,80C197.6,43,226,53,254,90.7C282.4,128,311,192,339,208C367.1,224,395,192,424,186.7C451.8,181,480,203,508,218.7C536.5,235,565,245,593,256C621.2,267,649,277,678,272C705.9,267,734,245,762,197.3C790.6,149,819,75,847,48C875.3,21,904,43,932,74.7C960,107,988,149,1016,138.7C1044.7,128,1073,64,1101,58.7C1129.4,53,1158,107,1186,133.3C1214.1,160,1242,160,1271,176C1298.8,192,1327,224,1355,202.7C1383.5,181,1412,107,1426,69.3L1440,32L1440,320L1425.9,320C1411.8,320,1384,320,1355,320C1327.1,320,1299,320,1271,320C1242.4,320,1214,320,1186,320C1157.6,320,1129,320,1101,320C1072.9,320,1045,320,1016,320C988.2,320,960,320,932,320C903.5,320,875,320,847,320C818.8,320,791,320,762,320C734.1,320,706,320,678,320C649.4,320,621,320,593,320C564.7,320,536,320,508,320C480,320,452,320,424,320C395.3,320,367,320,339,320C310.6,320,282,320,254,320C225.9,320,198,320,169,320C141.2,320,113,320,85,320C56.5,320,28,320,14,320L0,320Z"></path></svg>